<?xml version="1.0" encoding="UTF-8"?>
<svg width="793" height="182" viewBox="0 0 793 182" fill="none" xmlns="http://www.w3.org/2000/svg">
<path d="M31.2977 90.1704L37.9384 83.5298C38.3973 83.0708 39.1395 83.0708 39.5936 83.5298L40.6971 84.6333C41.1561 85.0923 41.1561 85.8345 40.6971 86.2886L35.995 91.0005L40.702 95.7075C41.161 96.1665 41.161 96.9087 40.702 97.3628L39.5985 98.4712C39.1395 98.9302 38.3973 98.9302 37.9432 98.4712L31.3026 91.8306C30.8387 91.3716 30.8387 90.6294 31.2977 90.1704V90.1704Z" fill="#5F677A"/>
<rect x="92.5" y="21" width="280" height="140" rx="8" fill="#E9F0FC"/>
<path d="M122.914 62H120.355V50.3398H120.277L116.967 52.459V50.125L120.473 47.8594H122.914V62ZM132.416 56.4238H130.277V53.2891H132.416V56.4238ZM140.57 56.3848H138.402V46.1016H140.57V56.3848ZM125.746 52.459C127.947 52.4655 129.984 52.4427 131.859 52.3906C133.734 52.3385 135.518 52.2311 137.211 52.0684L137.328 53.4258C135.577 53.6667 133.764 53.8229 131.889 53.8945C130.014 53.9661 128.044 53.9954 125.98 53.9824L125.746 52.459ZM140.57 60.916H130.541V62.5371H128.402V59.4805H138.422V58.4355H128.334V56.9414H140.57V60.916ZM141.039 63.582H128.402V62.0391H141.039V63.582ZM139.096 55.6816H135.082V54.3438H139.096V55.6816ZM131.439 46.375C132.312 46.375 133.083 46.4857 133.754 46.707C134.424 46.9219 134.942 47.2311 135.307 47.6348C135.678 48.0384 135.867 48.5039 135.873 49.0312C135.867 49.5716 135.678 50.0404 135.307 50.4375C134.942 50.8346 134.424 51.1406 133.754 51.3555C133.09 51.5703 132.318 51.6777 131.439 51.6777C130.554 51.6777 129.776 51.5703 129.105 51.3555C128.441 51.1406 127.924 50.8346 127.553 50.4375C127.188 50.0404 127.006 49.5716 127.006 49.0312C127.006 48.5039 127.188 48.0384 127.553 47.6348C127.924 47.2311 128.445 46.9219 129.115 46.707C129.786 46.4857 130.561 46.375 131.439 46.375ZM131.439 47.8203C130.958 47.8203 130.535 47.8691 130.17 47.9668C129.812 48.0579 129.535 48.1979 129.34 48.3867C129.151 48.569 129.057 48.7839 129.057 49.0312C129.057 49.2786 129.151 49.4902 129.34 49.666C129.535 49.8418 129.812 49.9818 130.17 50.0859C130.535 50.1836 130.958 50.2324 131.439 50.2324C131.928 50.2324 132.351 50.1836 132.709 50.0859C133.067 49.9818 133.344 49.8418 133.539 49.666C133.734 49.4902 133.832 49.2786 133.832 49.0312C133.832 48.7839 133.734 48.569 133.539 48.3867C133.344 48.1979 133.064 48.0579 132.699 47.9668C132.341 47.8691 131.921 47.8203 131.439 47.8203ZM152.836 49.5195C152.829 50.3529 152.673 51.1569 152.367 51.9316C152.068 52.6999 151.612 53.3867 151 53.9922C150.388 54.5911 149.656 55.0469 148.803 55.3594L147.816 53.7188C148.526 53.4518 149.135 53.0938 149.643 52.6445C150.157 52.1953 150.544 51.7005 150.805 51.1602C151.072 50.6133 151.208 50.0664 151.215 49.5195V49.1387H152.836V49.5195ZM153.266 49.5195C153.266 50.0534 153.399 50.5742 153.666 51.082C153.933 51.5898 154.32 52.0521 154.828 52.4688C155.342 52.8854 155.961 53.2109 156.684 53.4453L155.746 55.0273C154.867 54.7539 154.118 54.3372 153.5 53.7773C152.888 53.2174 152.426 52.5729 152.113 51.8438C151.801 51.1081 151.648 50.3333 151.654 49.5195V49.1387H153.266V49.5195ZM156.137 49.5684H148.305V47.8691H156.137V49.5684ZM153.266 48.9824H151.215V46.1602H153.266V48.9824ZM162.914 55.4082H160.844V46.1016H162.914V55.4082ZM161.439 51.6191H158.422V49.8711H161.439V51.6191ZM159.145 55.291H157.084V46.4238H159.145V55.291ZM162.914 60.5254H153.148V62.918H150.99V58.9531H160.766V57.7422H150.961V56.1016H162.914V60.5254ZM163.549 63.5137H150.99V61.8926H163.549V63.5137ZM179.779 59.0898H177.621V46.1016H179.779V59.0898ZM180.268 63.4062H168.012V61.6289H180.268V63.4062ZM170.189 62.5371H168.012V58.0352H170.189V62.5371ZM167.543 54.9785C169.483 54.9785 171.055 54.9427 172.26 54.8711C173.471 54.793 174.688 54.64 175.912 54.4121L176.137 56.1699C174.88 56.3978 173.624 56.5508 172.367 56.6289C171.111 56.707 169.503 56.7493 167.543 56.7559H166.029V54.9785H167.543ZM174.135 52.7422H168.158V55.5059H166.029V51.1016H171.986V49.0215H166.01V47.293H174.135V52.7422ZM188.607 51.082C188.607 52.4167 188.399 53.7025 187.982 54.9395C187.572 56.1764 186.986 57.2734 186.225 58.2305C185.463 59.181 184.574 59.8971 183.559 60.3789L182.299 58.6699C183.21 58.2533 184.008 57.6413 184.691 56.834C185.382 56.0202 185.912 55.1152 186.283 54.1191C186.654 53.1165 186.84 52.1042 186.84 51.082V48.7578H188.607V51.082ZM189.047 51.082C189.047 52.0716 189.229 53.0384 189.594 53.9824C189.965 54.9199 190.492 55.7663 191.176 56.5215C191.866 57.2767 192.67 57.8464 193.588 58.2305L192.406 59.9395C191.358 59.4837 190.45 58.8066 189.682 57.9082C188.92 57.0033 188.334 55.9648 187.924 54.793C187.52 53.6211 187.322 52.3841 187.328 51.082V48.7578H189.047V51.082ZM192.914 49.6074H182.963V47.8301H192.914V49.6074ZM197.074 63.7188H194.877V46.082H197.074V63.7188Z" fill="#0F172A"/>
<path d="M293.441 47.9316H292.697V37.5723H293.441V47.9316ZM287.98 38.3984C288.484 38.3984 288.934 38.5449 289.328 38.8379C289.727 39.1309 290.035 39.5488 290.254 40.0918C290.477 40.6348 290.588 41.2637 290.588 41.9785C290.588 42.6895 290.477 43.3145 290.254 43.8535C290.035 44.3926 289.727 44.8086 289.328 45.1016C288.934 45.3945 288.484 45.541 287.98 45.541C287.473 45.541 287.021 45.3945 286.627 45.1016C286.232 44.8086 285.924 44.3926 285.701 43.8535C285.479 43.3145 285.367 42.6895 285.367 41.9785C285.367 41.2637 285.479 40.6348 285.701 40.0918C285.924 39.5488 286.232 39.1309 286.627 38.8379C287.021 38.5449 287.473 38.3984 287.98 38.3984ZM287.98 39.0488C287.613 39.0527 287.285 39.1777 286.996 39.4238C286.707 39.6699 286.482 40.0156 286.322 40.4609C286.162 40.9023 286.082 41.4082 286.082 41.9785C286.082 42.5449 286.162 43.0488 286.322 43.4902C286.482 43.9316 286.707 44.2754 286.996 44.5215C287.285 44.7676 287.613 44.8906 287.98 44.8906C288.348 44.8906 288.674 44.7676 288.959 44.5215C289.248 44.2754 289.473 43.9316 289.633 43.4902C289.793 43.0488 289.873 42.5449 289.873 41.9785C289.873 41.4043 289.793 40.8965 289.633 40.4551C289.473 40.0137 289.248 39.6699 288.959 39.4238C288.674 39.1777 288.348 39.0527 287.98 39.0488ZM304.076 45.4473H303.367V37.5723H304.076V45.4473ZM301.68 41.2461H299.6V40.625H301.68V41.2461ZM302.137 45.1367H301.422V37.7891H302.137V45.1367ZM296.541 40.2207H299.131V38.416H299.834V43.4258H295.838V38.416H296.541V40.2207ZM299.131 42.7988V40.8184H296.541V42.7988H299.131ZM304.41 47.668H297.367V47.041H304.41V47.668ZM298.1 47.3457H297.367V44.3691H298.1V47.3457ZM314.049 43.8594H306.953V43.2383H314.049V43.8594ZM315.168 46.5195H305.699V45.8926H315.168V46.5195ZM313.926 39.1426H307.703V43.4375H306.953V38.5098H313.926V39.1426ZM313.709 41.4277H307.463V40.8184H313.709V41.4277ZM321.848 39.5645C321.844 40.041 321.742 40.5059 321.543 40.959C321.344 41.4121 321.059 41.8184 320.688 42.1777C320.32 42.5332 319.898 42.8066 319.422 42.998L319.047 42.4238C319.477 42.2598 319.859 42.0254 320.195 41.7207C320.535 41.416 320.799 41.0762 320.986 40.7012C321.174 40.3262 321.27 39.9473 321.273 39.5645V39.2012H321.848V39.5645ZM321.971 39.5645C321.971 39.9277 322.066 40.2852 322.258 40.6367C322.453 40.9883 322.721 41.3066 323.061 41.5918C323.4 41.873 323.785 42.0898 324.215 42.2422L323.863 42.7988C323.379 42.623 322.951 42.3691 322.58 42.0371C322.209 41.7012 321.92 41.3203 321.713 40.8945C321.506 40.4648 321.402 40.0215 321.402 39.5645V39.2012H321.971V39.5645ZM323.934 39.4121H319.27V38.8203H323.934V39.4121ZM321.971 39.1484H321.273V37.6309H321.971V39.1484ZM327.725 43.1445H327.016V37.584H327.725V43.1445ZM327.279 40.6309H325.199V40.0039H327.279V40.6309ZM325.492 43.0508H324.771V37.7832H325.492V43.0508ZM327.725 45.916H321.689V47.5684H320.957V45.3359H327.004V44.2227H320.928V43.6309H327.725V45.916ZM328.164 47.7617H320.957V47.1699H328.164V47.7617ZM337.832 45.1895H337.111V37.584H337.832V45.1895ZM338.143 47.668H331.111V47.041H338.143V47.668ZM331.855 47.3516H331.111V44.6035H331.855V47.3516ZM330.707 43.0391C331.719 43.0391 332.6 43.0137 333.35 42.9629C334.104 42.9121 334.889 42.8203 335.705 42.6875L335.775 43.3027C334.955 43.4434 334.166 43.5391 333.408 43.5898C332.65 43.6367 331.75 43.6621 330.707 43.666H329.893V43.0391H330.707ZM334.562 41.2168H330.602V43.25H329.893V40.6133H333.836V38.9434H329.863V38.3281H334.562V41.2168ZM343.199 40.8652C343.199 41.5488 343.057 42.2285 342.771 42.9043C342.486 43.5801 342.113 44.1816 341.652 44.709C341.191 45.2363 340.705 45.6348 340.193 45.9043L339.742 45.3184C340.215 45.0879 340.668 44.7324 341.102 44.252C341.539 43.7715 341.895 43.2324 342.168 42.6348C342.441 42.0332 342.578 41.4434 342.578 40.8652V38.9902H343.199V40.8652ZM343.316 40.8652C343.316 41.4395 343.453 42.0098 343.727 42.5762C344 43.1387 344.355 43.6406 344.793 44.082C345.234 44.5234 345.699 44.8516 346.188 45.0664L345.76 45.6523C345.221 45.3984 344.719 45.0273 344.254 44.5391C343.793 44.0469 343.42 43.4824 343.135 42.8457C342.854 42.2051 342.713 41.5449 342.713 40.8652V38.9902H343.316V40.8652ZM345.877 39.2832H340.059V38.6562H345.877V39.2832ZM348.203 47.9141H347.459V37.5723H348.203V47.9141Z" fill="#0F172A"/>
<path d="M125.012 96.9453H124.109V91.5312H125.012V96.9453ZM125.023 99.9336H119.176V101.434H118.273V99.2422H124.109V98.1758H118.25V97.4492H125.023V99.9336ZM125.398 101.832H118.273V101.094H125.398V101.832ZM119.996 93.0078C119.996 93.6133 119.871 94.1797 119.621 94.707C119.371 95.2305 119.02 95.6875 118.566 96.0781C118.113 96.4648 117.594 96.7578 117.008 96.957L116.574 96.2305C117.09 96.0586 117.551 95.8086 117.957 95.4805C118.363 95.1523 118.68 94.7754 118.906 94.3496C119.133 93.9238 119.246 93.4766 119.246 93.0078V92.4453H119.996V93.0078ZM120.172 93.0078C120.172 93.4531 120.287 93.877 120.518 94.2793C120.748 94.6816 121.064 95.0352 121.467 95.3398C121.873 95.6406 122.336 95.8672 122.855 96.0195L122.398 96.7344C121.816 96.5508 121.301 96.2773 120.852 95.9141C120.406 95.5469 120.057 95.1152 119.803 94.6191C119.553 94.1191 119.43 93.582 119.434 93.0078V92.4453H120.172V93.0078ZM122.574 92.8906H116.809V92.1289H122.574V92.8906ZM136.32 97.625H126.781V96.8633H136.32V97.625ZM132.078 99.7578H131.164V97.332H132.078V99.7578ZM135.078 95.668H128.023V92.0469H135.078V95.668ZM128.926 94.9297H134.164V92.7734H128.926V94.9297ZM135.254 101.727H128V100.953H135.254V101.727ZM128.926 101.223H128V98.7266H128.926V101.223ZM143.316 101.117C142.812 101.117 142.354 101.02 141.939 100.824C141.529 100.629 141.201 100.361 140.955 100.021C140.713 99.6816 140.582 99.2969 140.562 98.8672H141.582C141.605 99.1172 141.697 99.3418 141.857 99.541C142.018 99.7402 142.225 99.8984 142.479 100.016C142.736 100.133 143.016 100.191 143.316 100.191C143.68 100.191 144.004 100.109 144.289 99.9453C144.578 99.7812 144.805 99.5566 144.969 99.2715C145.133 98.9863 145.215 98.668 145.215 98.3164C145.215 97.9531 145.131 97.627 144.963 97.3379C144.795 97.0449 144.561 96.8145 144.26 96.6465C143.959 96.4785 143.621 96.3945 143.246 96.3945C142.875 96.3867 142.557 96.4453 142.291 96.5703C142.025 96.6914 141.816 96.8867 141.664 97.1562H140.645L141.242 92.5156H145.836V93.4531H142.121L141.805 95.9375H141.887C142.082 95.7891 142.314 95.6699 142.584 95.5801C142.857 95.4902 143.141 95.4453 143.434 95.4453C143.965 95.4453 144.445 95.5664 144.875 95.8086C145.305 96.0508 145.641 96.3906 145.883 96.8281C146.125 97.2617 146.246 97.75 146.246 98.293C146.246 98.832 146.119 99.3164 145.865 99.7461C145.611 100.176 145.262 100.512 144.816 100.754C144.375 100.996 143.875 101.117 143.316 101.117ZM156.863 97.8008H147.324V97.0508H156.863V97.8008ZM152.621 99.8398H151.707V97.4141H152.621V99.8398ZM155.797 101.727H148.543V100.953H155.797V101.727ZM149.457 101.246H148.543V98.8789H149.457V101.246ZM149.516 93.207H154.672V91.8711H155.586V96.0312H148.602V91.8711H149.516V93.207ZM154.672 95.2812V93.9102H149.516V95.2812H154.672ZM169.309 101.973H168.383V91.5312H169.309V101.973ZM163.766 92.3398C164.281 92.3398 164.74 92.4883 165.143 92.7852C165.545 93.082 165.859 93.5059 166.086 94.0566C166.312 94.6074 166.426 95.2461 166.426 95.9727C166.426 96.6992 166.312 97.3359 166.086 97.8828C165.859 98.4297 165.545 98.8516 165.143 99.1484C164.74 99.4453 164.281 99.5938 163.766 99.5938C163.25 99.5938 162.791 99.4453 162.389 99.1484C161.986 98.8516 161.672 98.4297 161.445 97.8828C161.219 97.3359 161.105 96.6992 161.105 95.9727C161.105 95.2461 161.219 94.6074 161.445 94.0566C161.672 93.5059 161.986 93.082 162.389 92.7852C162.791 92.4883 163.25 92.3398 163.766 92.3398ZM163.766 93.1602C163.422 93.1602 163.115 93.2773 162.846 93.5117C162.576 93.7461 162.367 94.0762 162.219 94.502C162.07 94.9277 161.996 95.418 161.996 95.9727C161.996 96.5312 162.07 97.0234 162.219 97.4492C162.367 97.8711 162.576 98.1973 162.846 98.4277C163.115 98.6582 163.422 98.7734 163.766 98.7734C164.113 98.7734 164.42 98.6582 164.686 98.4277C164.955 98.1973 165.164 97.8711 165.312 97.4492C165.461 97.0234 165.535 96.5312 165.535 95.9727C165.535 95.4141 165.461 94.9238 165.312 94.502C165.164 94.0762 164.955 93.7461 164.686 93.5117C164.42 93.2773 164.113 93.1602 163.766 93.1602ZM179.984 101.949H179.082V91.5312H179.984V101.949ZM179.352 96.5586H177.312V95.7734H179.352V96.5586ZM177.582 101.41H176.715V91.7656H177.582V101.41ZM172.531 98.8086H171.617V92.8086H172.531V98.8086ZM172.262 98.4336C172.883 98.4375 173.49 98.416 174.084 98.3691C174.682 98.3184 175.301 98.2266 175.941 98.0938L176.059 98.9141C175.371 99.0391 174.721 99.127 174.107 99.1777C173.498 99.2285 172.883 99.2539 172.262 99.2539H171.617V98.4336H172.262ZM192.617 97.0859H191.703V91.5312H192.617V97.0859ZM194.188 94.7539H192.359V93.9805H194.188V94.7539ZM185.773 95.9609C186.91 95.9609 187.82 95.9375 188.504 95.8906C189.191 95.8438 189.875 95.75 190.555 95.6094L190.672 96.3711C189.961 96.5117 189.25 96.6074 188.539 96.6582C187.832 96.709 186.91 96.7344 185.773 96.7344H184.965V95.9609H185.773ZM189.582 92.9844H185.879V96.4883H184.965V92.2227H189.582V92.9844ZM186.934 98.9492H191.703V97.6484H192.617V101.773H186.02V97.6484H186.934V98.9492ZM191.703 101.012V99.6875H186.934V101.012H191.703ZM202.895 94.2266H199.859V93.4531H202.895V94.2266ZM202.93 96.4531H199.859V95.6914H202.93V96.4531ZM203.48 99.2539H202.555V91.543H203.48V99.2539ZM203.715 101.727H196.742V100.953H203.715V101.727ZM197.668 101.328H196.742V98.4922H197.668V101.328ZM196.285 94.0859H199.191V92.2344H200.094V97.4727H195.371V92.2344H196.285V94.0859ZM199.191 96.7109V94.8125H196.285V96.7109H199.191ZM125.035 115.949H124.109V105.531H125.035V115.949ZM122.633 107.43H116.68V106.668H122.633V107.43ZM116.41 112.586C117.676 112.582 118.871 112.561 119.996 112.521C121.121 112.479 122.18 112.398 123.172 112.281L123.23 112.973C122.223 113.129 121.176 113.232 120.09 113.283C119.008 113.334 117.816 113.363 116.516 113.371L116.41 112.586ZM118.754 112.785H117.852V107.23H118.754V112.785ZM121.449 112.785H120.547V107.23H121.449V112.785ZM135.207 111.309H128.012V110.547H135.207V111.309ZM136.332 114.531H126.793V113.758H136.332V114.531ZM135.102 107.266H128.926V110.887H128.012V106.504H135.102V107.266ZM143.316 115.117C142.812 115.117 142.354 115.02 141.939 114.824C141.529 114.629 141.201 114.361 140.955 114.021C140.713 113.682 140.582 113.297 140.562 112.867H141.582C141.605 113.117 141.697 113.342 141.857 113.541C142.018 113.74 142.225 113.898 142.479 114.016C142.736 114.133 143.016 114.191 143.316 114.191C143.68 114.191 144.004 114.109 144.289 113.945C144.578 113.781 144.805 113.557 144.969 113.271C145.133 112.986 145.215 112.668 145.215 112.316C145.215 111.953 145.131 111.627 144.963 111.338C144.795 111.045 144.561 110.814 144.26 110.646C143.959 110.479 143.621 110.395 143.246 110.395C142.875 110.387 142.557 110.445 142.291 110.57C142.025 110.691 141.816 110.887 141.664 111.156H140.645L141.242 106.516H145.836V107.453H142.121L141.805 109.938H141.887C142.082 109.789 142.314 109.67 142.584 109.58C142.857 109.49 143.141 109.445 143.434 109.445C143.965 109.445 144.445 109.566 144.875 109.809C145.305 110.051 145.641 110.391 145.883 110.828C146.125 111.262 146.246 111.75 146.246 112.293C146.246 112.832 146.119 113.316 145.865 113.746C145.611 114.176 145.262 114.512 144.816 114.754C144.375 114.996 143.875 115.117 143.316 115.117ZM156.23 115.949H155.328V105.531H156.23V115.949ZM155.668 110.5H153.617V109.738H155.668V110.5ZM151.824 106.891C151.82 107.828 151.693 108.707 151.443 109.527C151.197 110.348 150.783 111.117 150.201 111.836C149.619 112.551 148.848 113.176 147.887 113.711L147.348 113.066C148.203 112.586 148.896 112.033 149.428 111.408C149.963 110.779 150.348 110.104 150.582 109.381C150.82 108.658 150.941 107.879 150.945 107.043V106.891H151.824ZM151.25 107.652H147.746V106.891H151.25V107.652ZM153.887 115.434H153.008V105.812H153.887V115.434ZM169.309 115.973H168.383V105.531H169.309V115.973ZM163.766 106.34C164.281 106.34 164.74 106.488 165.143 106.785C165.545 107.082 165.859 107.506 166.086 108.057C166.312 108.607 166.426 109.246 166.426 109.973C166.426 110.699 166.312 111.336 166.086 111.883C165.859 112.43 165.545 112.852 165.143 113.148C164.74 113.445 164.281 113.594 163.766 113.594C163.25 113.594 162.791 113.445 162.389 113.148C161.986 112.852 161.672 112.43 161.445 111.883C161.219 111.336 161.105 110.699 161.105 109.973C161.105 109.246 161.219 108.607 161.445 108.057C161.672 107.506 161.986 107.082 162.389 106.785C162.791 106.488 163.25 106.34 163.766 106.34ZM163.766 107.16C163.422 107.16 163.115 107.277 162.846 107.512C162.576 107.746 162.367 108.076 162.219 108.502C162.07 108.928 161.996 109.418 161.996 109.973C161.996 110.531 162.07 111.023 162.219 111.449C162.367 111.871 162.576 112.197 162.846 112.428C163.115 112.658 163.422 112.773 163.766 112.773C164.113 112.773 164.42 112.658 164.686 112.428C164.955 112.197 165.164 111.871 165.312 111.449C165.461 111.023 165.535 110.531 165.535 109.973C165.535 109.414 165.461 108.924 165.312 108.502C165.164 108.076 164.955 107.746 164.686 107.512C164.42 107.277 164.113 107.16 163.766 107.16ZM174.43 107.148C174.43 107.809 174.311 108.428 174.072 109.006C173.834 109.58 173.496 110.08 173.059 110.506C172.625 110.928 172.121 111.25 171.547 111.473L171.055 110.734C171.57 110.543 172.025 110.268 172.42 109.908C172.814 109.545 173.121 109.127 173.34 108.654C173.559 108.182 173.668 107.68 173.668 107.148V106.07H174.43V107.148ZM174.57 107.219C174.57 107.684 174.682 108.133 174.904 108.566C175.127 108.996 175.434 109.375 175.824 109.703C176.215 110.031 176.66 110.281 177.16 110.453L176.656 111.18C176.102 110.977 175.611 110.678 175.186 110.283C174.76 109.889 174.426 109.428 174.184 108.9C173.941 108.373 173.82 107.812 173.82 107.219V106.07H174.57V107.219ZM179.234 111.871H178.32V105.531H179.234V111.871ZM180.805 109.023H178.977V108.25H180.805V109.023ZM175.895 112.141C176.605 112.141 177.219 112.215 177.734 112.363C178.25 112.512 178.645 112.729 178.918 113.014C179.191 113.295 179.328 113.633 179.328 114.027C179.328 114.43 179.191 114.771 178.918 115.053C178.645 115.338 178.25 115.555 177.734 115.703C177.219 115.852 176.605 115.926 175.895 115.926C175.18 115.926 174.562 115.852 174.043 115.703C173.527 115.555 173.131 115.338 172.854 115.053C172.576 114.768 172.438 114.426 172.438 114.027C172.438 113.633 172.576 113.295 172.854 113.014C173.131 112.729 173.529 112.512 174.049 112.363C174.568 112.215 175.184 112.141 175.895 112.141ZM175.895 112.879C175.375 112.879 174.924 112.926 174.541 113.02C174.162 113.113 173.869 113.246 173.662 113.418C173.459 113.59 173.359 113.793 173.363 114.027C173.359 114.27 173.459 114.479 173.662 114.654C173.869 114.83 174.162 114.965 174.541 115.059C174.92 115.152 175.371 115.199 175.895 115.199C176.418 115.199 176.871 115.152 177.254 115.059C177.637 114.965 177.93 114.83 178.133 114.654C178.336 114.479 178.438 114.27 178.438 114.027C178.438 113.793 178.336 113.588 178.133 113.412C177.93 113.236 177.635 113.104 177.248 113.014C176.865 112.924 176.414 112.879 175.895 112.879ZM193.062 111.086H192.16V105.531H193.062V111.086ZM186.441 115.094C187.266 115.098 187.928 115.086 188.428 115.059C188.932 115.031 189.449 114.969 189.98 114.871L190.074 115.574C189.523 115.676 188.994 115.74 188.486 115.768C187.982 115.799 187.301 115.812 186.441 115.809H185.809V115.094H186.441ZM189.254 113.934H186.699V115.492H185.809V113.254H188.363V112.246H185.797V111.531H189.254V113.934ZM193.062 115.867H192.16V112.293H189.723V111.531H193.062V115.867ZM187.426 106.012C187.941 106.012 188.404 106.109 188.814 106.305C189.225 106.5 189.545 106.775 189.775 107.131C190.006 107.486 190.121 107.891 190.121 108.344C190.121 108.797 190.006 109.201 189.775 109.557C189.545 109.912 189.225 110.189 188.814 110.389C188.404 110.588 187.941 110.688 187.426 110.688C186.906 110.688 186.439 110.588 186.025 110.389C185.615 110.189 185.295 109.912 185.064 109.557C184.834 109.201 184.719 108.797 184.719 108.344C184.719 107.891 184.834 107.486 185.064 107.131C185.295 106.775 185.615 106.5 186.025 106.305C186.439 106.109 186.906 106.012 187.426 106.012ZM187.426 106.785C187.082 106.785 186.771 106.852 186.494 106.984C186.217 107.117 186 107.303 185.844 107.541C185.691 107.779 185.617 108.047 185.621 108.344C185.617 108.645 185.691 108.916 185.844 109.158C186 109.396 186.217 109.584 186.494 109.721C186.771 109.857 187.082 109.926 187.426 109.926C187.766 109.926 188.072 109.857 188.346 109.721C188.623 109.584 188.84 109.396 188.996 109.158C189.152 108.916 189.23 108.645 189.23 108.344C189.23 108.047 189.152 107.779 188.996 107.541C188.84 107.303 188.623 107.117 188.346 106.984C188.072 106.852 187.766 106.785 187.426 106.785ZM203.457 115.949H202.531V105.531H203.457V115.949ZM200.375 106.668C200.371 107.699 200.199 108.664 199.859 109.562C199.523 110.461 198.992 111.289 198.266 112.047C197.539 112.801 196.609 113.449 195.477 113.992L194.973 113.242C195.977 112.766 196.811 112.203 197.475 111.555C198.143 110.906 198.639 110.188 198.963 109.398C199.291 108.605 199.457 107.742 199.461 106.809V106.668H200.375ZM199.836 107.418H195.453V106.668H199.836V107.418Z" fill="#0F172A"/>
<rect x="289" y="119" width="72" height="26" rx="8" fill="#3B82F6"/>
<path d="M303.131 129.876H304.487V132.384H305.435V126.636H304.487V129.072H303.131V126.84H302.207V132.288H303.131V129.876ZM301.739 131.328C300.407 130.872 299.531 129.768 299.531 128.7V128.628H301.451V127.848H299.531V126.684H298.595V127.848H296.651V128.628H298.595V128.7C298.595 129.816 297.743 131.004 296.411 131.532L296.867 132.276C297.935 131.856 298.715 131.028 299.075 130.056C299.471 130.944 300.251 131.7 301.295 132.072L301.739 131.328ZM299.327 136.488V135.36H305.435V132.852H298.331V133.608H304.463V134.628H298.355V137.244H305.843V136.488H299.327ZM316.21 126.636H315.226V134.556H316.21V126.636ZM313.942 131.868C312.286 132.156 310.882 132.228 308.914 132.228V130.5H312.814V127.392H307.918V128.184H311.842V129.756H307.954V133.032H308.818C310.882 133.032 312.322 132.96 314.038 132.672L313.942 131.868ZM310.174 136.344V133.944H309.19V137.148H316.51V136.344H310.174ZM322.269 128.544H324.801V127.728H318.789V128.544H321.285V129.912C321.285 131.772 319.977 133.8 318.429 134.532L319.005 135.324C320.229 134.7 321.285 133.344 321.777 131.772C322.293 133.248 323.349 134.484 324.597 135.06L325.149 134.268C323.565 133.596 322.269 131.736 322.269 129.912V128.544ZM326.253 126.636V137.388H327.237V126.636H326.253ZM336.659 127.56H335.687V129.492C335.687 131.532 334.379 133.596 332.795 134.352L333.395 135.156C334.655 134.508 335.687 133.164 336.179 131.544C336.695 133.08 337.727 134.352 338.951 134.952L339.539 134.16C337.943 133.44 336.659 131.46 336.659 129.492V127.56ZM340.667 126.624V137.412H341.651V126.624H340.667ZM350.134 131.892C348.55 131.352 347.518 130.02 347.518 128.592V128.172H349.894V127.38H344.122V128.172H346.534V128.604C346.534 130.14 345.454 131.532 343.834 132.096L344.35 132.876C345.61 132.408 346.582 131.46 347.038 130.26C347.506 131.364 348.43 132.24 349.63 132.66L350.134 131.892ZM345.226 134.484H351.25V137.4H352.234V133.692H345.226V134.484ZM353.83 129.456H352.234V126.636H351.25V133.116H352.234V130.272H353.83V129.456Z" fill="#FCFCFC"/>
<rect x="420.5" y="21" width="280" height="140" rx="8" fill="#E9F0FC"/>
<path d="M458.84 52.625C458.742 52.0716 458.537 51.5931 458.225 51.1895C457.912 50.7858 457.518 50.4798 457.043 50.2715C456.568 50.0566 456.04 49.9492 455.461 49.9492C454.686 49.9492 453.999 50.1445 453.4 50.5352C452.808 50.9193 452.342 51.4857 452.004 52.2344C451.672 52.9831 451.506 53.8815 451.506 54.9297C451.506 55.9909 451.672 56.8926 452.004 57.6348C452.342 58.377 452.808 58.9434 453.4 59.334C453.993 59.7181 454.676 59.9102 455.451 59.9102C456.018 59.9102 456.538 59.8092 457.014 59.6074C457.489 59.3991 457.883 59.0996 458.195 58.709C458.514 58.3184 458.729 57.8529 458.84 57.3125L461.408 57.3223C461.271 58.2337 460.939 59.0605 460.412 59.8027C459.891 60.5384 459.201 61.1211 458.342 61.5508C457.482 61.9805 456.509 62.1953 455.422 62.1953C454.172 62.1953 453.059 61.9056 452.082 61.3262C451.105 60.7402 450.34 59.9004 449.787 58.8066C449.234 57.7064 448.957 56.4141 448.957 54.9297C448.957 53.4388 449.237 52.1465 449.797 51.0527C450.357 49.9525 451.122 49.1126 452.092 48.5332C453.068 47.9538 454.178 47.6641 455.422 47.6641C456.464 47.6641 457.411 47.8594 458.264 48.25C459.123 48.6406 459.823 49.2103 460.363 49.959C460.91 50.7077 461.258 51.5964 461.408 52.625H458.84ZM469.797 57.3027C469.549 57.3223 469.357 57.3385 469.221 57.3516C469.09 57.3581 468.895 57.3711 468.635 57.3906C468.153 57.4102 467.714 57.4362 467.316 57.4688C466.704 57.5208 466.229 57.6738 465.891 57.9277C465.552 58.1816 465.383 58.5365 465.383 58.9922C465.383 59.2917 465.461 59.5456 465.617 59.7539C465.773 59.9622 465.985 60.1217 466.252 60.2324C466.519 60.3366 466.828 60.3854 467.18 60.3789C467.668 60.3789 468.101 60.2812 468.479 60.0859C468.856 59.8906 469.146 59.627 469.348 59.2949C469.556 58.9564 469.66 58.5885 469.66 58.1914L469.641 54.8027C469.641 54.4577 469.569 54.1615 469.426 53.9141C469.283 53.6602 469.064 53.4714 468.771 53.3477C468.485 53.224 468.133 53.1621 467.717 53.1621C467.176 53.1621 466.737 53.276 466.398 53.5039C466.06 53.7253 465.842 54.028 465.744 54.4121H463.322C463.387 53.8066 463.609 53.2663 463.986 52.791C464.364 52.3092 464.875 51.9349 465.52 51.668C466.171 51.3945 466.926 51.2578 467.785 51.2578C468.54 51.2578 469.243 51.3717 469.895 51.5996C470.546 51.8275 471.076 52.2148 471.486 52.7617C471.903 53.3086 472.115 54.0215 472.121 54.9004V62H469.738V60.5352H469.66C469.406 61.0299 469.016 61.4336 468.488 61.7461C467.967 62.0586 467.316 62.2148 466.535 62.2148C465.852 62.2148 465.243 62.0944 464.709 61.8535C464.175 61.6061 463.752 61.2415 463.439 60.7598C463.133 60.278 462.98 59.6986 462.98 59.0215C462.98 57.9277 463.348 57.1367 464.084 56.6484C464.82 56.1602 465.77 55.877 466.936 55.7988C467.248 55.7793 467.593 55.7598 467.971 55.7402C468.355 55.7142 468.726 55.6947 469.084 55.6816C469.312 55.6751 469.543 55.6686 469.777 55.6621L469.797 57.3027ZM479.748 53.3086H473.674V51.3945H479.748V53.3086ZM477.668 48.8555V58.8164C477.668 59.1354 477.717 59.3861 477.814 59.5684C477.912 59.7441 478.042 59.8678 478.205 59.9395C478.374 60.0111 478.576 60.0469 478.811 60.0469C478.908 60.0534 479.025 60.0534 479.162 60.0469C479.305 60.0404 479.445 60.0339 479.582 60.0273L479.895 59.998V62.0391C479.478 62.1107 479.009 62.1465 478.488 62.1465C477.85 62.1465 477.281 62.0391 476.779 61.8242C476.278 61.6029 475.884 61.2773 475.598 60.8477C475.318 60.4115 475.178 59.8678 475.178 59.2168V48.8555H477.668ZM486.193 62.2051C485.152 62.2051 484.247 61.9772 483.479 61.5215C482.71 61.0592 482.121 60.4147 481.711 59.5879C481.307 58.7611 481.105 57.8105 481.105 56.7363C481.105 55.6621 481.314 54.7116 481.73 53.8848C482.147 53.0514 482.736 52.4069 483.498 51.9512C484.266 51.4889 485.158 51.2578 486.174 51.2578C487.02 51.2578 487.779 51.4141 488.449 51.7266C489.126 52.0326 489.66 52.4753 490.051 53.0547C490.448 53.6341 490.673 54.3014 490.725 55.0566H488.352C488.286 54.7051 488.16 54.3958 487.971 54.1289C487.782 53.8555 487.538 53.6406 487.238 53.4844C486.945 53.3281 486.604 53.25 486.213 53.25C485.699 53.25 485.246 53.39 484.855 53.6699C484.465 53.9434 484.159 54.3405 483.938 54.8613C483.723 55.3757 483.615 55.9844 483.615 56.6875C483.615 57.4036 483.723 58.0254 483.938 58.5527C484.152 59.0736 484.455 59.474 484.846 59.7539C485.236 60.0339 485.692 60.1738 486.213 60.1738C486.577 60.1738 486.91 60.1022 487.209 59.959C487.508 59.8158 487.756 59.6139 487.951 59.3535C488.146 59.0866 488.28 58.7643 488.352 58.3867H490.725C490.666 59.1354 490.445 59.7995 490.061 60.3789C489.676 60.9583 489.152 61.4076 488.488 61.7266C487.824 62.0456 487.059 62.2051 486.193 62.2051ZM495.09 62H492.609V47.8594H495.041V53.1914H495.158C495.412 52.5794 495.803 52.1042 496.33 51.7656C496.857 51.4271 497.518 51.2578 498.312 51.2578C499.055 51.2578 499.699 51.4141 500.246 51.7266C500.793 52.0326 501.216 52.485 501.516 53.084C501.815 53.6829 501.965 54.4023 501.965 55.2422V62H499.484V55.623C499.484 55.1478 499.4 54.7409 499.23 54.4023C499.068 54.0638 498.827 53.8066 498.508 53.6309C498.195 53.4486 497.821 53.3574 497.385 53.3574C496.936 53.3574 496.538 53.4518 496.193 53.6406C495.855 53.8294 495.585 54.1094 495.383 54.4805C495.188 54.8451 495.09 55.278 495.09 55.7793V62ZM509.055 62.2051C508 62.2051 507.085 61.9837 506.311 61.541C505.536 61.0983 504.94 60.4668 504.523 59.6465C504.107 58.8262 503.898 57.8659 503.898 56.7656C503.898 55.6784 504.107 54.7181 504.523 53.8848C504.947 53.0449 505.536 52.3971 506.291 51.9414C507.046 51.4857 507.925 51.2578 508.928 51.2578C509.826 51.2578 510.64 51.4499 511.369 51.834C512.098 52.2181 512.678 52.8105 513.107 53.6113C513.544 54.4121 513.762 55.4082 513.762 56.5996V57.3809H505.08V55.6914H511.379C511.372 55.2161 511.268 54.7897 511.066 54.4121C510.871 54.028 510.588 53.7285 510.217 53.5137C509.852 53.2988 509.432 53.1914 508.957 53.1914C508.449 53.1914 508 53.3118 507.609 53.5527C507.219 53.7936 506.913 54.1191 506.691 54.5293C506.477 54.9329 506.366 55.3757 506.359 55.8574V57.3027C506.359 57.9212 506.473 58.4518 506.701 58.8945C506.929 59.3372 507.245 59.679 507.648 59.9199C508.059 60.1543 508.537 60.2715 509.084 60.2715C509.436 60.2715 509.751 60.2227 510.031 60.125C510.318 60.0273 510.559 59.8971 510.754 59.7344C510.956 59.5716 511.112 59.3828 511.223 59.168H513.664C513.514 59.7799 513.231 60.3171 512.814 60.7793C512.404 61.235 511.877 61.5866 511.232 61.834C510.594 62.0814 509.868 62.2051 509.055 62.2051ZM515.715 51.3945H518.117V53.1621H518.234C518.417 52.5566 518.742 52.0846 519.211 51.7461C519.686 51.4076 520.23 51.2383 520.842 51.2383C521.291 51.2448 521.594 51.2676 521.75 51.3066V53.6016C521.613 53.556 521.434 53.5202 521.213 53.4941C520.998 53.4681 520.79 53.4551 520.588 53.4551C520.132 53.4551 519.722 53.5527 519.357 53.748C518.999 53.9434 518.716 54.2168 518.508 54.5684C518.299 54.9199 518.195 55.3171 518.195 55.7598V62H515.715V51.3945Z" fill="#0F172A"/>
<path d="M634.002 43.0742H633.27V37.5723H634.002V43.0742ZM635.607 40.6953H633.797V40.0625H635.607V40.6953ZM627.258 42.0547C628.363 42.0547 629.262 42.0312 629.953 41.9844C630.645 41.9336 631.34 41.8379 632.039 41.6973L632.139 42.3242C631.408 42.4648 630.688 42.5605 629.977 42.6113C629.266 42.6621 628.359 42.6875 627.258 42.6875H626.473V42.0547H627.258ZM631.043 38.8965H627.205V42.4941H626.473V38.2754H631.043V38.8965ZM628.26 45.0488H633.27V43.6543H634.002V47.7207H627.533V43.6543H628.26V45.0488ZM633.27 47.0996V45.6523H628.26V47.0996H633.27ZM644.391 40.1621H641.262V39.5352H644.391V40.1621ZM644.414 42.3828H641.262V41.7559H644.414V42.3828ZM644.848 45.2422H644.104V37.584H644.848V45.2422ZM645.094 47.668H638.227V47.041H645.094V47.668ZM638.971 47.3164H638.227V44.4863H638.971V47.3164ZM637.611 40.1855H640.764V38.2695H641.484V43.4258H636.873V38.2695H637.611V40.1855ZM640.764 42.8047V40.7832H637.611V42.8047H640.764ZM652.477 39.5645C652.473 40.041 652.371 40.5059 652.172 40.959C651.973 41.4121 651.688 41.8184 651.316 42.1777C650.949 42.5332 650.527 42.8066 650.051 42.998L649.676 42.4238C650.105 42.2598 650.488 42.0254 650.824 41.7207C651.164 41.416 651.428 41.0762 651.615 40.7012C651.803 40.3262 651.898 39.9473 651.902 39.5645V39.2012H652.477V39.5645ZM652.6 39.5645C652.6 39.9277 652.695 40.2852 652.887 40.6367C653.082 40.9883 653.35 41.3066 653.689 41.5918C654.029 41.873 654.414 42.0898 654.844 42.2422L654.492 42.7988C654.008 42.623 653.58 42.3691 653.209 42.0371C652.838 41.7012 652.549 41.3203 652.342 40.8945C652.135 40.4648 652.031 40.0215 652.031 39.5645V39.2012H652.6V39.5645ZM654.562 39.4121H649.898V38.8203H654.562V39.4121ZM652.6 39.1484H651.902V37.6309H652.6V39.1484ZM658.354 43.1445H657.645V37.584H658.354V43.1445ZM657.908 40.6309H655.828V40.0039H657.908V40.6309ZM656.121 43.0508H655.4V37.7832H656.121V43.0508ZM658.354 45.916H652.318V47.5684H651.586V45.3359H657.633V44.2227H651.557V43.6309H658.354V45.916ZM658.793 47.7617H651.586V47.1699H658.793V47.7617ZM668.461 45.1895H667.74V37.584H668.461V45.1895ZM668.771 47.668H661.74V47.041H668.771V47.668ZM662.484 47.3516H661.74V44.6035H662.484V47.3516ZM661.336 43.0391C662.348 43.0391 663.229 43.0137 663.979 42.9629C664.732 42.9121 665.518 42.8203 666.334 42.6875L666.404 43.3027C665.584 43.4434 664.795 43.5391 664.037 43.5898C663.279 43.6367 662.379 43.6621 661.336 43.666H660.521V43.0391H661.336ZM665.191 41.2168H661.23V43.25H660.521V40.6133H664.465V38.9434H660.492V38.3281H665.191V41.2168ZM673.828 40.8652C673.828 41.5488 673.686 42.2285 673.4 42.9043C673.115 43.5801 672.742 44.1816 672.281 44.709C671.82 45.2363 671.334 45.6348 670.822 45.9043L670.371 45.3184C670.844 45.0879 671.297 44.7324 671.73 44.252C672.168 43.7715 672.523 43.2324 672.797 42.6348C673.07 42.0332 673.207 41.4434 673.207 40.8652V38.9902H673.828V40.8652ZM673.945 40.8652C673.945 41.4395 674.082 42.0098 674.355 42.5762C674.629 43.1387 674.984 43.6406 675.422 44.082C675.863 44.5234 676.328 44.8516 676.816 45.0664L676.389 45.6523C675.85 45.3984 675.348 45.0273 674.883 44.5391C674.422 44.0469 674.049 43.4824 673.764 42.8457C673.482 42.2051 673.342 41.5449 673.342 40.8652V38.9902H673.945V40.8652ZM676.506 39.2832H670.688V38.6562H676.506V39.2832ZM678.832 47.9141H678.088V37.5723H678.832V47.9141Z" fill="#0F172A"/>
<path d="M451.34 93.5469C451.336 94.0312 451.236 94.502 451.041 94.959C450.85 95.416 450.568 95.8242 450.197 96.1836C449.83 96.5391 449.402 96.8125 448.914 97.0039L448.469 96.3008C448.898 96.1367 449.277 95.9082 449.605 95.6152C449.934 95.3223 450.186 94.9961 450.361 94.6367C450.541 94.2734 450.633 93.9102 450.637 93.5469V93.2305H451.34V93.5469ZM451.504 93.5469C451.504 93.8945 451.596 94.2383 451.779 94.5781C451.963 94.9141 452.219 95.2188 452.547 95.4922C452.875 95.7656 453.254 95.9766 453.684 96.125L453.273 96.8047C452.773 96.6328 452.338 96.3789 451.967 96.043C451.596 95.707 451.309 95.3242 451.105 94.8945C450.906 94.4609 450.809 94.0117 450.812 93.5469V93.2305H451.504V93.5469ZM453.391 93.4531H448.715V92.7266H453.391V93.4531ZM451.504 93.1602H450.637V91.5898H451.504V93.1602ZM457.27 97.1094H456.391V91.543H457.27V97.1094ZM456.684 94.6719H454.691V93.9102H456.684V94.6719ZM455.031 97.0273H454.141V91.7422H455.031V97.0273ZM457.27 99.9805H451.293V101.562H450.379V99.2891H456.367V98.293H450.355V97.5781H457.27V99.9805ZM457.691 101.809H450.379V101.094H457.691V101.809ZM467.383 99.207H466.48V91.543H467.383V99.207ZM467.688 101.727H460.551V100.953H467.688V101.727ZM461.477 101.34H460.551V98.6094H461.477V101.34ZM460.188 96.957C461.246 96.957 462.146 96.9336 462.889 96.8867C463.635 96.8359 464.402 96.7422 465.191 96.6055L465.285 97.3672C464.484 97.5039 463.707 97.5977 462.953 97.6484C462.199 97.6953 461.277 97.7227 460.188 97.7305H459.344V96.957H460.188ZM464.078 95.293H460.234V97.2031H459.344V94.5664H463.164V93.0312H459.32V92.2812H464.078V95.293ZM472.727 94.7305C472.727 95.4492 472.59 96.1582 472.316 96.8574C472.043 97.5566 471.676 98.1777 471.215 98.7207C470.758 99.2637 470.258 99.6719 469.715 99.9453L469.164 99.2188C469.66 98.9805 470.121 98.6211 470.547 98.1406C470.977 97.6562 471.32 97.1133 471.578 96.5117C471.836 95.9102 471.965 95.3164 471.965 94.7305V93.0078H472.727V94.7305ZM472.891 94.7305C472.891 95.3047 473.02 95.877 473.277 96.4473C473.535 97.0137 473.879 97.5195 474.309 97.9648C474.738 98.4102 475.207 98.7422 475.715 98.9609L475.199 99.6875C474.633 99.4297 474.117 99.0469 473.652 98.5391C473.191 98.0312 472.824 97.4473 472.551 96.7871C472.281 96.123 472.148 95.4375 472.152 94.7305V93.0078H472.891V94.7305ZM475.375 93.3711H469.504V92.6094H475.375V93.3711ZM477.754 101.949H476.828V91.5312H477.754V101.949ZM486.133 93.7695C486.133 94.3906 486.01 94.9746 485.764 95.5215C485.518 96.0645 485.17 96.541 484.721 96.9512C484.275 97.3574 483.762 97.668 483.18 97.8828L482.699 97.1445C483.219 96.9648 483.68 96.7031 484.082 96.3594C484.488 96.0156 484.805 95.6191 485.031 95.1699C485.258 94.7207 485.371 94.2539 485.371 93.7695V92.6797H486.133V93.7695ZM486.297 93.7695C486.297 94.2305 486.412 94.6719 486.643 95.0938C486.873 95.5156 487.189 95.8867 487.592 96.207C487.994 96.5273 488.453 96.7695 488.969 96.9336L488.5 97.6719C487.922 97.4727 487.41 97.1816 486.965 96.7988C486.52 96.4121 486.17 95.959 485.916 95.4395C485.662 94.9199 485.535 94.3633 485.535 93.7695V92.6797H486.297V93.7695ZM488.699 93.1602H482.934V92.4102H488.699V93.1602ZM491.148 99.1836H490.234V91.543H491.148V99.1836ZM491.477 101.727H484.422V100.953H491.477V101.727ZM485.336 101.293H484.422V98.457H485.336V101.293ZM501.766 98.1289H500.887V91.5312H501.766V98.1289ZM501.145 95.1406H499.129V94.3789H501.145V95.1406ZM499.492 97.7539H498.625V91.7422H499.492V97.7539ZM498.203 93.5234H492.859V92.7852H498.203V93.5234ZM495.543 94.0859C495.98 94.0859 496.369 94.1582 496.709 94.3027C497.049 94.4473 497.312 94.6543 497.5 94.9238C497.688 95.1934 497.781 95.5078 497.781 95.8672C497.781 96.2188 497.688 96.5273 497.5 96.793C497.312 97.0586 497.049 97.2656 496.709 97.4141C496.369 97.5625 495.98 97.6367 495.543 97.6367C495.109 97.6367 494.723 97.5625 494.383 97.4141C494.047 97.2656 493.785 97.0586 493.598 96.793C493.41 96.5273 493.316 96.2188 493.316 95.8672C493.316 95.5078 493.41 95.1934 493.598 94.9238C493.785 94.6543 494.047 94.4473 494.383 94.3027C494.723 94.1582 495.109 94.0859 495.543 94.0859ZM495.543 94.7656C495.27 94.7656 495.027 94.8105 494.816 94.9004C494.605 94.9902 494.439 95.1191 494.318 95.2871C494.197 95.4551 494.137 95.6484 494.137 95.8672C494.137 96.0781 494.197 96.2656 494.318 96.4297C494.439 96.5938 494.605 96.7207 494.816 96.8105C495.027 96.9004 495.27 96.9453 495.543 96.9453C495.816 96.9453 496.061 96.9004 496.275 96.8105C496.49 96.7207 496.656 96.5938 496.773 96.4297C496.891 96.2656 496.949 96.0781 496.949 95.8672C496.949 95.6484 496.891 95.4551 496.773 95.2871C496.656 95.1191 496.49 94.9902 496.275 94.9004C496.061 94.8105 495.816 94.7656 495.543 94.7656ZM496 93.207H495.086V91.6133H496V93.207ZM498.32 98.3047C499.051 98.3047 499.678 98.375 500.201 98.5156C500.729 98.6562 501.131 98.8652 501.408 99.1426C501.686 99.416 501.824 99.7461 501.824 100.133C501.824 100.512 501.686 100.834 501.408 101.1C501.131 101.369 500.729 101.574 500.201 101.715C499.674 101.855 499.047 101.926 498.32 101.926C497.59 101.926 496.961 101.855 496.434 101.715C495.91 101.574 495.51 101.369 495.232 101.1C494.959 100.834 494.824 100.512 494.828 100.133C494.824 99.7461 494.959 99.416 495.232 99.1426C495.51 98.8652 495.91 98.6562 496.434 98.5156C496.961 98.375 497.59 98.3047 498.32 98.3047ZM498.32 99.0312C497.781 99.0273 497.318 99.0684 496.932 99.1543C496.545 99.2363 496.248 99.3613 496.041 99.5293C495.838 99.6973 495.738 99.8984 495.742 100.133C495.738 100.355 495.838 100.549 496.041 100.713C496.248 100.873 496.545 100.996 496.932 101.082C497.322 101.168 497.785 101.211 498.32 101.211C498.855 101.211 499.316 101.168 499.703 101.082C500.094 100.996 500.391 100.873 500.594 100.713C500.801 100.549 500.906 100.355 500.91 100.133C500.906 99.8945 500.801 99.6934 500.594 99.5293C500.391 99.3613 500.096 99.2363 499.709 99.1543C499.322 99.0684 498.859 99.0273 498.32 99.0312ZM511.703 97.168H504.508V96.418H511.703V97.168ZM512.828 100.637H503.289V99.8633H512.828V100.637ZM508.48 100.18H507.578V96.7461H508.48V100.18ZM511.598 93.1367H505.434V96.7695H504.508V92.3867H511.598V93.1367ZM517.035 100.227L519.93 97.1797C520.309 96.7734 520.598 96.4453 520.797 96.1953C521 95.9453 521.154 95.707 521.26 95.4805C521.365 95.25 521.418 95.0078 521.418 94.7539C521.418 94.4688 521.344 94.2188 521.195 94.0039C521.047 93.7852 520.844 93.6152 520.586 93.4941C520.332 93.373 520.047 93.3125 519.73 93.3125C519.398 93.3125 519.107 93.3789 518.857 93.5117C518.611 93.6445 518.42 93.832 518.283 94.0742C518.146 94.3125 518.078 94.5898 518.078 94.9062H517.082C517.078 94.4141 517.191 93.9785 517.422 93.5996C517.656 93.2207 517.979 92.9258 518.389 92.7148C518.799 92.5039 519.258 92.3984 519.766 92.3984C520.27 92.3984 520.721 92.502 521.119 92.709C521.521 92.916 521.836 93.1992 522.062 93.5586C522.289 93.918 522.402 94.3164 522.402 94.7539C522.398 95.0781 522.338 95.3887 522.221 95.6855C522.107 95.9785 521.912 96.3047 521.635 96.6641C521.357 97.0234 520.965 97.4648 520.457 97.9883L518.512 99.9922V100.062H522.555V101H517.047L517.035 100.227ZM524.383 102.277H523.469L526.199 92.1172H527.125L524.383 102.277ZM531.098 101H530.031V93.6172H529.984L527.922 94.9883V93.9219L530.031 92.5156H531.098V101ZM536.137 101.117C535.512 101.117 534.979 100.947 534.537 100.607C534.096 100.268 533.758 99.7715 533.523 99.1191C533.289 98.4668 533.172 97.6797 533.172 96.7578C533.172 95.8477 533.289 95.0664 533.523 94.4141C533.758 93.7578 534.096 93.2578 534.537 92.9141C534.982 92.5703 535.516 92.3984 536.137 92.3984C536.754 92.3984 537.285 92.5703 537.73 92.9141C538.176 93.2578 538.516 93.7578 538.75 94.4141C538.984 95.0664 539.102 95.8477 539.102 96.7578C539.102 97.6797 538.986 98.4668 538.756 99.1191C538.525 99.7715 538.188 100.268 537.742 100.607C537.297 100.947 536.762 101.117 536.137 101.117ZM536.137 100.18C536.543 100.18 536.893 100.047 537.186 99.7812C537.479 99.5156 537.699 99.127 537.848 98.6152C537.996 98.1035 538.07 97.4844 538.07 96.7578C538.07 96.0312 537.994 95.4102 537.842 94.8945C537.689 94.3789 537.469 93.9863 537.18 93.7168C536.891 93.4473 536.543 93.3125 536.137 93.3125C535.73 93.3125 535.383 93.4473 535.094 93.7168C534.805 93.9863 534.582 94.3789 534.426 94.8945C534.27 95.4102 534.191 96.0312 534.191 96.7578C534.191 97.4844 534.27 98.1035 534.426 98.6152C534.582 99.127 534.803 99.5156 535.088 99.7812C535.377 100.047 535.727 100.18 536.137 100.18ZM456.566 111.086H455.652V105.531H456.566V111.086ZM458.137 108.754H456.309V107.98H458.137V108.754ZM449.723 109.961C450.859 109.961 451.77 109.938 452.453 109.891C453.141 109.844 453.824 109.75 454.504 109.609L454.621 110.371C453.91 110.512 453.199 110.607 452.488 110.658C451.781 110.709 450.859 110.734 449.723 110.734H448.914V109.961H449.723ZM453.531 106.984H449.828V110.488H448.914V106.223H453.531V106.984ZM450.883 112.949H455.652V111.648H456.566V115.773H449.969V111.648H450.883V112.949ZM455.652 115.012V113.688H450.883V115.012H455.652ZM466.844 108.227H463.809V107.453H466.844V108.227ZM466.879 110.453H463.809V109.691H466.879V110.453ZM467.43 113.254H466.504V105.543H467.43V113.254ZM467.664 115.727H460.691V114.953H467.664V115.727ZM461.617 115.328H460.691V112.492H461.617V115.328ZM460.234 108.086H463.141V106.234H464.043V111.473H459.32V106.234H460.234V108.086ZM463.141 110.711V108.812H460.234V110.711H463.141ZM475.387 115.117C474.801 115.117 474.279 115.016 473.822 114.812C473.365 114.609 473.01 114.328 472.756 113.969C472.502 113.609 472.375 113.203 472.375 112.75C472.375 112.391 472.451 112.055 472.604 111.742C472.756 111.43 472.963 111.174 473.225 110.975C473.486 110.771 473.777 110.645 474.098 110.594V110.547C473.82 110.484 473.576 110.361 473.365 110.178C473.158 109.994 472.996 109.77 472.879 109.504C472.762 109.238 472.703 108.953 472.703 108.648C472.703 108.223 472.818 107.84 473.049 107.5C473.279 107.156 473.598 106.887 474.004 106.691C474.414 106.496 474.875 106.398 475.387 106.398C475.895 106.398 476.354 106.496 476.764 106.691C477.174 106.887 477.494 107.156 477.725 107.5C477.959 107.84 478.078 108.223 478.082 108.648C478.078 108.953 478.016 109.238 477.895 109.504C477.777 109.77 477.613 109.994 477.402 110.178C477.191 110.361 476.949 110.484 476.676 110.547V110.594C476.992 110.645 477.281 110.771 477.543 110.975C477.809 111.174 478.018 111.43 478.17 111.742C478.326 112.055 478.406 112.391 478.41 112.75C478.406 113.203 478.275 113.609 478.018 113.969C477.764 114.328 477.406 114.609 476.945 114.812C476.488 115.016 475.969 115.117 475.387 115.117ZM475.387 114.191C475.785 114.191 476.133 114.127 476.43 113.998C476.727 113.869 476.955 113.693 477.115 113.471C477.275 113.248 477.355 112.988 477.355 112.691C477.355 112.383 477.271 112.105 477.104 111.859C476.936 111.609 476.701 111.414 476.4 111.273C476.1 111.133 475.762 111.062 475.387 111.062C475.012 111.062 474.676 111.133 474.379 111.273C474.082 111.414 473.848 111.609 473.676 111.859C473.508 112.105 473.426 112.383 473.43 112.691C473.426 112.988 473.502 113.248 473.658 113.471C473.818 113.693 474.045 113.869 474.338 113.998C474.635 114.127 474.984 114.191 475.387 114.191ZM475.387 110.172C475.707 110.172 475.994 110.109 476.248 109.984C476.502 109.859 476.699 109.689 476.84 109.475C476.98 109.26 477.051 109.012 477.051 108.73C477.051 108.449 476.982 108.201 476.846 107.986C476.709 107.771 476.514 107.605 476.26 107.488C476.006 107.371 475.715 107.312 475.387 107.312C475.055 107.312 474.764 107.371 474.514 107.488C474.268 107.605 474.074 107.771 473.934 107.986C473.793 108.201 473.723 108.449 473.723 108.73C473.723 109.012 473.795 109.26 473.939 109.475C474.084 109.689 474.281 109.859 474.531 109.984C474.781 110.109 475.066 110.172 475.387 110.172ZM488.348 115.949H487.445V105.531H488.348V115.949ZM487.785 110.5H485.734V109.738H487.785V110.5ZM483.941 106.891C483.938 107.828 483.811 108.707 483.561 109.527C483.314 110.348 482.9 111.117 482.318 111.836C481.736 112.551 480.965 113.176 480.004 113.711L479.465 113.066C480.32 112.586 481.014 112.033 481.545 111.408C482.08 110.779 482.465 110.104 482.699 109.381C482.938 108.658 483.059 107.879 483.062 107.043V106.891H483.941ZM483.367 107.652H479.863V106.891H483.367V107.652ZM486.004 115.434H485.125V105.812H486.004V115.434ZM496.199 107.465C496.199 108.09 496.078 108.676 495.836 109.223C495.594 109.77 495.252 110.244 494.811 110.646C494.373 111.049 493.867 111.355 493.293 111.566L492.801 110.852C493.316 110.668 493.775 110.406 494.178 110.066C494.58 109.723 494.893 109.326 495.115 108.877C495.342 108.428 495.457 107.957 495.461 107.465V106.609H496.199V107.465ZM496.363 107.465C496.363 107.922 496.471 108.361 496.686 108.783C496.9 109.201 497.201 109.574 497.588 109.902C497.975 110.227 498.422 110.477 498.93 110.652L498.461 111.367C497.891 111.164 497.391 110.869 496.961 110.482C496.531 110.096 496.199 109.643 495.965 109.123C495.73 108.604 495.613 108.051 495.613 107.465V106.609H496.363V107.465ZM498.707 107.02H493.082V106.27H498.707V107.02ZM500.98 111.812H500.066V105.531H500.98V111.812ZM502.551 109.07H500.723V108.285H502.551V109.07ZM500.98 115.949H500.066V113.113H494.16V112.363H500.98V115.949ZM506.629 107.207C506.629 107.871 506.508 108.49 506.266 109.064C506.023 109.639 505.682 110.137 505.24 110.559C504.799 110.98 504.285 111.301 503.699 111.52L503.195 110.77C503.727 110.582 504.195 110.311 504.602 109.955C505.008 109.6 505.32 109.186 505.539 108.713C505.762 108.24 505.875 107.738 505.879 107.207V106.129H506.629V107.207ZM506.793 107.172C506.789 107.66 506.895 108.125 507.109 108.566C507.328 109.004 507.633 109.391 508.023 109.727C508.414 110.062 508.863 110.316 509.371 110.488L508.855 111.203C508.297 110.992 507.805 110.689 507.379 110.295C506.957 109.9 506.627 109.438 506.389 108.906C506.15 108.371 506.031 107.793 506.031 107.172V106.129H506.793V107.172ZM511.844 111.707H510.918V105.531H511.844V111.707ZM508.387 112.012C509.105 112.012 509.727 112.088 510.25 112.24C510.773 112.393 511.176 112.617 511.457 112.914C511.738 113.211 511.879 113.566 511.879 113.98C511.879 114.391 511.738 114.74 511.457 115.029C511.176 115.322 510.773 115.545 510.25 115.697C509.727 115.85 509.105 115.926 508.387 115.926C507.664 115.926 507.041 115.85 506.518 115.697C505.998 115.545 505.598 115.322 505.316 115.029C505.035 114.74 504.895 114.391 504.895 113.98C504.895 113.566 505.035 113.211 505.316 112.914C505.598 112.617 505.998 112.393 506.518 112.24C507.041 112.088 507.664 112.012 508.387 112.012ZM508.387 112.738C507.855 112.738 507.396 112.787 507.01 112.885C506.623 112.982 506.326 113.125 506.119 113.312C505.912 113.5 505.809 113.723 505.809 113.98C505.809 114.23 505.912 114.445 506.119 114.625C506.326 114.805 506.623 114.943 507.01 115.041C507.396 115.139 507.855 115.188 508.387 115.188C508.914 115.188 509.371 115.139 509.758 115.041C510.148 114.943 510.447 114.805 510.654 114.625C510.861 114.445 510.965 114.23 510.965 113.98C510.965 113.723 510.861 113.5 510.654 113.312C510.447 113.125 510.148 112.982 509.758 112.885C509.371 112.787 508.914 112.738 508.387 112.738ZM511.117 108.531H508.598V107.77H511.117V108.531ZM521.641 115.949H520.727V105.531H521.641V115.949ZM523.387 110.594H521.43V109.832H523.387V110.594ZM519.719 107.969H513.52V107.207H519.719V107.969ZM516.672 108.836C517.156 108.836 517.592 108.938 517.979 109.141C518.365 109.344 518.668 109.627 518.887 109.99C519.109 110.354 519.223 110.766 519.227 111.227C519.223 111.691 519.109 112.105 518.887 112.469C518.668 112.828 518.365 113.109 517.979 113.312C517.592 113.516 517.156 113.617 516.672 113.617C516.184 113.617 515.744 113.516 515.354 113.312C514.967 113.109 514.664 112.828 514.445 112.469C514.227 112.105 514.117 111.691 514.117 111.227C514.117 110.766 514.227 110.354 514.445 109.99C514.664 109.627 514.967 109.344 515.354 109.141C515.744 108.938 516.184 108.836 516.672 108.836ZM516.672 109.609C516.352 109.609 516.064 109.678 515.811 109.814C515.557 109.951 515.357 110.145 515.213 110.395C515.068 110.641 514.996 110.918 514.996 111.227C514.996 111.539 515.068 111.816 515.213 112.059C515.357 112.301 515.557 112.492 515.811 112.633C516.064 112.77 516.352 112.836 516.672 112.832C516.988 112.836 517.273 112.77 517.527 112.633C517.785 112.492 517.984 112.301 518.125 112.059C518.27 111.816 518.344 111.539 518.348 111.227C518.344 110.918 518.27 110.641 518.125 110.395C517.984 110.145 517.785 109.951 517.527 109.814C517.273 109.678 516.988 109.609 516.672 109.609ZM517.117 107.559H516.203V105.66H517.117V107.559ZM532.562 115.949H531.637V105.531H532.562V115.949ZM529.48 106.668C529.477 107.699 529.305 108.664 528.965 109.562C528.629 110.461 528.098 111.289 527.371 112.047C526.645 112.801 525.715 113.449 524.582 113.992L524.078 113.242C525.082 112.766 525.916 112.203 526.58 111.555C527.248 110.906 527.744 110.188 528.068 109.398C528.396 108.605 528.562 107.742 528.566 106.809V106.668H529.48ZM528.941 107.418H524.559V106.668H528.941V107.418Z" fill="#0F172A"/>
<rect x="617" y="119" width="72" height="26" rx="8" fill="#3B82F6"/>
<path d="M638.108 130.824C636.704 131.112 635.48 131.184 633.356 131.184V128.124H637.112V127.332H632.372V132H633.212C635.468 132 636.74 131.928 638.216 131.616L638.108 130.824ZM639.26 136.404H634.424V135.06H639.26V136.404ZM639.26 134.28H634.424V132.936H633.452V137.208H640.232V132.936H639.26V134.28ZM641.828 129.144H640.232V126.612H639.248V132.36H640.232V129.96H641.828V129.144ZM650.791 129.396V130.92H648.307V129.396H650.791ZM647.335 131.964H644.431V130.02H647.335V131.964ZM648.307 131.724H650.791V134.592H651.787V126.636H650.791V128.604H648.307V127.344H647.335V129.24H644.431V127.344H643.459V132.756H648.307V131.724ZM645.847 136.344V133.812H644.863V137.148H652.039V136.344H645.847ZM663.72 130.5C663.626 130.213 663.503 129.956 663.349 129.729C663.199 129.499 663.018 129.303 662.808 129.141C662.601 128.979 662.365 128.855 662.101 128.77C661.836 128.685 661.547 128.642 661.231 128.642C660.714 128.642 660.244 128.776 659.821 129.043C659.398 129.31 659.061 129.703 658.811 130.223C658.561 130.743 658.436 131.381 658.436 132.136C658.436 132.892 658.562 133.53 658.815 134.05C659.068 134.57 659.41 134.963 659.842 135.23C660.274 135.497 660.76 135.631 661.3 135.631C661.8 135.631 662.24 135.524 662.621 135.311C663.004 135.095 663.302 134.791 663.515 134.399C663.731 134.004 663.839 133.54 663.839 133.006L664.163 133.074H661.538V132.136H664.862V133.074C664.862 133.793 664.709 134.418 664.402 134.949C664.098 135.48 663.677 135.892 663.14 136.185C662.606 136.474 661.993 136.619 661.3 136.619C660.527 136.619 659.848 136.438 659.263 136.074C658.68 135.71 658.226 135.193 657.899 134.523C657.575 133.852 657.413 133.057 657.413 132.136C657.413 131.446 657.506 130.825 657.69 130.274C657.878 129.72 658.142 129.249 658.483 128.859C658.824 128.47 659.227 128.172 659.693 127.964C660.159 127.757 660.672 127.653 661.231 127.653C661.692 127.653 662.121 127.723 662.518 127.862C662.919 127.999 663.275 128.193 663.588 128.446C663.903 128.696 664.166 128.996 664.376 129.345C664.586 129.692 664.731 130.077 664.811 130.5H663.72ZM674.036 132.136C674.036 133.057 673.869 133.852 673.537 134.523C673.205 135.193 672.749 135.71 672.169 136.074C671.59 136.438 670.928 136.619 670.183 136.619C669.439 136.619 668.777 136.438 668.198 136.074C667.618 135.71 667.162 135.193 666.83 134.523C666.497 133.852 666.331 133.057 666.331 132.136C666.331 131.216 666.497 130.42 666.83 129.75C667.162 129.08 667.618 128.562 668.198 128.199C668.777 127.835 669.439 127.653 670.183 127.653C670.928 127.653 671.59 127.835 672.169 128.199C672.749 128.562 673.205 129.08 673.537 129.75C673.869 130.42 674.036 131.216 674.036 132.136ZM673.013 132.136C673.013 131.381 672.887 130.743 672.634 130.223C672.384 129.703 672.044 129.31 671.615 129.043C671.189 128.776 670.712 128.642 670.183 128.642C669.655 128.642 669.176 128.776 668.747 129.043C668.321 129.31 667.982 129.703 667.729 130.223C667.479 130.743 667.354 131.381 667.354 132.136C667.354 132.892 667.479 133.53 667.729 134.05C667.982 134.57 668.321 134.963 668.747 135.23C669.176 135.497 669.655 135.631 670.183 135.631C670.712 135.631 671.189 135.497 671.615 135.23C672.044 134.963 672.384 134.57 672.634 134.05C672.887 133.53 673.013 132.892 673.013 132.136Z" fill="#FCFCFC"/>
<path d="M761.703 91.8306L755.062 98.4712C754.603 98.9302 753.861 98.9302 753.407 98.4712L752.303 97.3677C751.844 96.9087 751.844 96.1665 752.303 95.7124L757.01 91.0054L752.303 86.2983C751.844 85.8394 751.844 85.0972 752.303 84.6431L753.402 83.5298C753.861 83.0708 754.603 83.0708 755.057 83.5298L761.698 90.1704C762.162 90.6294 762.162 91.3716 761.703 91.8306V91.8306Z" fill="#5F677A"/>
<rect x="0.5" y="0.5" width="792" height="181" rx="7.5" stroke="#ADADAD"/>
</svg>
