<svg width="80" height="80" viewBox="0 0 80 80" fill="none" xmlns="http://www.w3.org/2000/svg">
<path d="M0 40C0 17.9032 17.9032 0 40 0C62.0968 0 80 17.9032 80 40C80 62.0968 62.0968 80 40 80C17.9032 80 0 62.0968 0 40ZM37.2581 21.629L15.4032 43.4839C13.8871 45 13.8871 47.4516 15.4032 48.9516L18.1452 51.6935C19.6613 53.2097 22.1129 53.2097 23.6129 51.6935L40 35.3064L56.3871 51.6935C57.9032 53.2097 60.3548 53.2097 61.8548 51.6935L64.5968 48.9516C66.1129 47.4355 66.1129 44.9839 64.5968 43.4839L42.7419 21.629C41.2258 20.1129 38.7742 20.1129 37.2581 21.629Z" fill="#3B82F6"/>
</svg>
