<?xml version="1.0" encoding="UTF-8"?>
<svg id="_레이어_2" data-name="레이어 2" xmlns="http://www.w3.org/2000/svg" viewBox="0 0 99.05 102.23" width="current" height="current">
  <defs>
    <style>
      .cls-1 {
        fill: #3b82f6;
      }
    </style>
  </defs>
  <g id="_레이어_1-2" data-name="레이어 1">
    <path class="cls-1" d="m99.05,35.71v-2.12c0-2.35-2.16-4.25-4.83-4.25h-19.41c-2.95-3.37-6.38-6.13-10.17-8.17l14.12-12.42c1.89-1.66,1.89-4.35,0-6.01l-1.71-1.5c-1.89-1.66-4.95-1.66-6.83,0l-18.37,16.15c-.77-.06-1.54-.14-2.32-.14-.55,0-1.09.07-1.63.1L29.81,1.46c-1.89-1.66-4.95-1.66-6.83,0l-1.71,1.5c-1.89,1.66-1.89,4.35,0,6.01l13.59,11.95c-3.96,2.06-7.55,4.92-10.62,8.43H4.83c-2.67,0-4.83,1.9-4.83,4.25v2.12c0,2.35,2.16,4.25,4.83,4.25h12.64c-1.97,4.38-3.29,9.22-3.85,14.34H4.83c-2.67,0-4.83,1.9-4.83,4.25v2.12c0,2.35,2.16,4.25,4.83,4.25h8.75c.53,5.12,1.83,9.95,3.78,14.34H4.83c-2.67,0-4.83,1.9-4.83,4.25v2.12c0,2.35,2.16,4.25,4.83,4.25h19.16c6.55,7.63,15.57,12.35,25.53,12.35s18.98-4.72,25.53-12.35h19.16c2.67,0,4.83-1.9,4.83-4.25v-2.12c0-2.35-2.16-4.25-4.83-4.25h-12.53c1.94-4.39,3.24-9.22,3.78-14.34h8.75c2.67,0,4.83-1.9,4.83-4.25v-2.12c0-2.35-2.16-4.25-4.83-4.25h-8.79c-.56-5.12-1.88-9.96-3.85-14.34h12.64c2.67,0,4.83-1.9,4.83-4.25Zm-35.03,40.36h-28.99v-11.33h28.99v11.33Zm0-20.53h-28.99v-11.33h28.99v11.33Z"/>
  </g>
</svg>